<svg xmlns="http://www.w3.org/2000/svg" width="30" height="30" viewBox="0 0 30 30" fill="none">
  <path fill-rule="evenodd" clip-rule="evenodd" d="M10.3126 7.51875V6.25C10.3126 5.0068 10.8065 3.81451 11.6855 2.93544C12.5646 2.05636 13.7569 1.5625 15.0001 1.5625C16.2433 1.5625 17.4356 2.05636 18.3147 2.93544C19.1937 3.81451 19.6876 5.0068 19.6876 6.25V7.51875C21.2964 7.5675 22.2814 7.74 23.0326 8.36375C24.0739 9.22875 24.3489 10.6912 24.8976 13.6175L25.8351 18.6175C26.6064 22.7325 26.9914 24.79 25.8676 26.145C24.7426 27.5 22.6489 27.5 18.4626 27.5H11.5376C7.35011 27.5 5.25761 27.5 4.13261 26.145C3.00761 24.79 3.39511 22.7325 4.16511 18.6175L5.10261 13.6175C5.65261 10.6925 5.92636 9.22875 6.96761 8.36375C7.71886 7.74 8.70386 7.5675 10.3126 7.51875ZM12.1876 6.25C12.1876 5.50408 12.4839 4.78871 13.0114 4.26126C13.5388 3.73382 14.2542 3.4375 15.0001 3.4375C15.746 3.4375 16.4614 3.73382 16.9888 4.26126C17.5163 4.78871 17.8126 5.50408 17.8126 6.25V7.5H12.1876V6.25ZM19.3364 13.6425C19.4326 13.7194 19.5128 13.8146 19.5723 13.9225C19.6317 14.0305 19.6693 14.1491 19.6829 14.2716C19.6965 14.394 19.6858 14.518 19.6514 14.6363C19.617 14.7547 19.5597 14.8651 19.4826 14.9613L14.4826 21.2113C14.4002 21.3141 14.297 21.3985 14.1797 21.4588C14.0624 21.5191 13.9338 21.554 13.8021 21.5612C13.6705 21.5683 13.5388 21.5477 13.4157 21.5005C13.2926 21.4534 13.1808 21.3808 13.0876 21.2875L10.5876 18.7875C10.422 18.6098 10.3319 18.3747 10.3361 18.1318C10.3404 17.889 10.4388 17.6572 10.6106 17.4855C10.7823 17.3137 11.0141 17.2153 11.257 17.211C11.4998 17.2067 11.7349 17.2969 11.9126 17.4625L13.6726 19.2213L18.0176 13.7887C18.0945 13.6925 18.1897 13.6123 18.2976 13.5529C18.4056 13.4934 18.5242 13.4558 18.6467 13.4422C18.7691 13.4286 18.8931 13.4393 19.0114 13.4737C19.1298 13.5081 19.2402 13.5654 19.3364 13.6425Z" fill="#0D9755"/>
</svg>