<svg xmlns="http://www.w3.org/2000/svg" width="16" height="16" viewBox="0 0 16 16" fill="none">
  <path d="M10.793 1.3335H5.20634C2.77967 1.3335 1.33301 2.78016 1.33301 5.20683V10.7868C1.33301 13.2202 2.77967 14.6668 5.20634 14.6668H10.7863C13.213 14.6668 14.6597 13.2202 14.6597 10.7935V5.20683C14.6663 2.78016 13.2197 1.3335 10.793 1.3335ZM11.8997 9.40016C11.873 9.46016 11.8397 9.5135 11.793 9.56016L9.76634 11.5868C9.66634 11.6868 9.53967 11.7335 9.41301 11.7335C9.28634 11.7335 9.15967 11.6868 9.05967 11.5868C8.96669 11.4927 8.91454 11.3658 8.91454 11.2335C8.91454 11.1012 8.96669 10.9743 9.05967 10.8802L10.233 9.70683H4.56634C4.29301 9.70683 4.06634 9.48016 4.06634 9.20683C4.06634 8.9335 4.29301 8.70683 4.56634 8.70683H11.4397C11.5063 8.70683 11.5663 8.72016 11.633 8.74683C11.753 8.80016 11.853 8.8935 11.9063 9.02016C11.9463 9.14016 11.9463 9.28016 11.8997 9.40016ZM11.433 7.28683H4.56634C4.49967 7.28683 4.43967 7.2735 4.37301 7.24683C4.25024 7.19411 4.15239 7.09627 4.09967 6.9735C4.0733 6.91362 4.05968 6.84892 4.05968 6.7835C4.05968 6.71807 4.0733 6.65337 4.09967 6.5935C4.12634 6.5335 4.15967 6.48016 4.20634 6.4335L6.23301 4.40683C6.42634 4.2135 6.74634 4.2135 6.93967 4.40683C7.13301 4.60016 7.13301 4.92016 6.93967 5.1135L5.77301 6.28683H11.4397C11.713 6.28683 11.9397 6.5135 11.9397 6.78683C11.9397 7.06016 11.713 7.28683 11.433 7.28683Z" fill="#EBA775"/>
</svg>