<svg xmlns="http://www.w3.org/2000/svg" width="30" height="30" viewBox="0 0 30 30" fill="none">
  <g clipPath="url(#clip0_1182_7316)">
    <path d="M5 23.75C5 24.413 5.26339 25.0489 5.73223 25.5178C6.20107 25.9866 6.83696 26.25 7.5 26.25C8.16304 26.25 8.79893 25.9866 9.26777 25.5178C9.73661 25.0489 10 24.413 10 23.75C10 23.087 9.73661 22.4511 9.26777 21.9822C8.79893 21.5134 8.16304 21.25 7.5 21.25C6.83696 21.25 6.20107 21.5134 5.73223 21.9822C5.26339 22.4511 5 23.087 5 23.75Z" stroke="#FF7500" strokeWidth="1.5" strokeLinecap="round" strokeLinejoin="round"/>
    <path d="M21.25 21.25C20.7555 21.25 20.2722 21.3966 19.8611 21.6713C19.45 21.946 19.1295 22.3365 18.9403 22.7933C18.7511 23.2501 18.7016 23.7528 18.798 24.2377C18.8945 24.7227 19.1326 25.1681 19.4822 25.5178C19.8319 25.8674 20.2773 26.1055 20.7623 26.202C21.2472 26.2984 21.7499 26.2489 22.2067 26.0597C22.6635 25.8705 23.054 25.55 23.3287 25.1389C23.6034 24.7278 23.75 24.2445 23.75 23.75" stroke="#FF7500" strokeWidth="1.5" strokeLinecap="round" strokeLinejoin="round"/>
    <path d="M21.25 21.25H7.5V7.5" stroke="#FF7500" strokeWidth="1.5" strokeLinecap="round" strokeLinejoin="round"/>
    <path d="M11.5488 6.53857L25 7.49982L23.75 16.2498H21.25M16.25 16.2498H7.5" stroke="#FF7500" strokeWidth="1.5" strokeLinecap="round" strokeLinejoin="round"/>
    <path d="M3.75 3.75L26.25 26.25" stroke="#FF7500" strokeWidth="1.5" strokeLinecap="round" strokeLinejoin="round"/>
  </g>
  <defs>
    <clipPath id="clip0_1182_7316">
      <rect width="30" height="30" fill="white"/>
    </clipPath>
  </defs>
</svg>