<svg xmlns="http://www.w3.org/2000/svg" width="16" height="16" viewBox="0 0 16 16" fill="none">
  <path d="M11.6871 5.18016C11.6406 5.1735 11.5935 5.1735 11.5471 5.18016C11.0491 5.16387 10.5772 4.95429 10.2312 4.59586C9.88519 4.23743 9.69242 3.75834 9.69372 3.26016C9.69372 2.20016 10.5537 1.3335 11.6204 1.3335C12.6804 1.3335 13.5471 2.1935 13.5471 3.26016C13.5456 3.75865 13.3511 4.23718 13.0042 4.59522C12.6574 4.95325 12.1852 5.16292 11.6871 5.18016ZM13.8617 9.80016C13.1151 10.3002 12.0684 10.4868 11.1017 10.3602C11.3551 9.8135 11.4884 9.20683 11.4951 8.56683C11.4951 7.90016 11.3484 7.26683 11.0684 6.7135C12.0551 6.58016 13.1017 6.76683 13.8551 7.26683C14.9084 7.96016 14.9084 9.10016 13.8617 9.80016ZM4.29372 5.18016C4.34039 5.1735 4.38705 5.1735 4.43372 5.18016C4.93163 5.16387 5.40361 4.95429 5.7496 4.59586C6.09558 4.23743 6.28836 3.75834 6.28706 3.26016C6.28706 3.00759 6.23731 2.75748 6.14065 2.52413C6.04399 2.29079 5.90232 2.07876 5.72372 1.90016C5.54513 1.72156 5.3331 1.57989 5.09975 1.48323C4.8664 1.38658 4.6163 1.33683 4.36372 1.33683C4.11115 1.33683 3.86104 1.38658 3.62769 1.48323C3.39434 1.57989 3.18232 1.72156 3.00372 1.90016C2.82512 2.07876 2.68345 2.29079 2.58679 2.52413C2.49014 2.75748 2.44039 3.00759 2.44039 3.26016C2.44039 4.30016 3.26039 5.14683 4.29372 5.18016ZM4.36772 8.56683C4.36772 9.2135 4.50772 9.82683 4.76105 10.3802C3.82105 10.4802 2.84105 10.2802 2.12105 9.80683C1.06772 9.10683 1.06772 7.96683 2.12105 7.26683C2.83439 6.78683 3.84106 6.5935 4.78772 6.70016C4.51439 7.26016 4.36772 7.8935 4.36772 8.56683ZM8.08039 10.5802C8.0228 10.5735 7.96464 10.5735 7.90705 10.5802C7.31429 10.5602 6.75253 10.3105 6.34067 9.88368C5.92882 9.45689 5.69919 8.8866 5.70039 8.2935C5.70706 7.02683 6.72705 6.00016 8.00039 6.00016C9.26705 6.00016 10.2937 7.02683 10.2937 8.2935C10.2934 8.88726 10.0623 9.45766 9.64935 9.8843C9.23639 10.3109 8.67383 10.5605 8.08039 10.5802ZM5.91372 11.9602C4.90705 12.6335 4.90705 13.7402 5.91372 14.4068C7.06039 15.1735 8.94039 15.1735 10.0871 14.4068C11.0937 13.7335 11.0937 12.6268 10.0871 11.9602C8.94705 11.1935 7.06705 11.1935 5.91372 11.9602Z" fill="#7758B5"/>
</svg>