<svg xmlns="http://www.w3.org/2000/svg" width="30" height="30" viewBox="0 0 30 30" fill="none">
  <g clipPath="url(#clip0_1182_7358)">
    <path d="M21.25 4.17487C23.1353 5.26343 24.7037 6.82552 25.7998 8.70649C26.8959 10.5875 27.4817 12.7221 27.4993 14.899C27.5169 17.076 26.9656 19.2198 25.9 21.1182C24.8345 23.0167 23.2916 24.6039 21.4241 25.7228C19.5566 26.8416 17.4292 27.4534 15.2526 27.4974C13.076 27.5415 10.9257 27.0163 9.01444 25.9739C7.1032 24.9315 5.49734 23.408 4.35583 21.5543C3.21433 19.7005 2.57676 17.5808 2.50625 15.4049L2.5 14.9999L2.50625 14.5949C2.57625 12.4361 3.20443 10.3323 4.32955 8.48861C5.45466 6.6449 7.03832 5.12418 8.92612 4.07472C10.8139 3.02526 12.9414 2.48286 15.1013 2.50041C17.2611 2.51796 19.3795 3.09486 21.25 4.17487ZM13.1388 11.4249C12.8769 11.269 12.567 11.2141 12.2675 11.2707C11.968 11.3272 11.6995 11.4912 11.5124 11.7318C11.3254 11.9725 11.2327 12.2732 11.2518 12.5774C11.2709 12.8816 11.4005 13.1683 11.6163 13.3836L13.2312 14.9999L11.6163 16.6161L11.5125 16.7336C11.3182 16.9849 11.2269 17.3006 11.257 17.6168C11.2871 17.9329 11.4364 18.2258 11.6747 18.4358C11.9129 18.6458 12.2221 18.7573 12.5395 18.7477C12.857 18.738 13.1588 18.6078 13.3837 18.3836L15 16.7686L16.6163 18.3836L16.7338 18.4874C16.985 18.6816 17.3008 18.773 17.6169 18.7429C17.9331 18.7127 18.2259 18.5634 18.4359 18.3252C18.646 18.087 18.7575 17.7778 18.7478 17.4603C18.7381 17.1429 18.6079 16.8411 18.3837 16.6161L16.7688 14.9999L18.3837 13.3836L18.4875 13.2661C18.6818 13.0149 18.7731 12.6991 18.743 12.383C18.7129 12.0668 18.5636 11.774 18.3253 11.5639C18.0871 11.3539 17.7779 11.2424 17.4605 11.2521C17.143 11.2618 16.8412 11.3919 16.6163 11.6161L15 13.2311L13.3837 11.6161L13.2662 11.5124L13.1388 11.4249Z" fill="black" fill-opacity="0.6"/>
  </g>
  <defs>
    <clipPath id="clip0_1182_7358">
      <rect width="30" height="30" fill="white"/>
    </clipPath>
  </defs>
</svg>