<svg xmlns="http://www.w3.org/2000/svg" width="30" height="30" viewBox="0 0 30 30" fill="none">
  <path fill-rule="evenodd" clip-rule="evenodd" d="M10.3125 7.51875V6.25C10.3125 5.0068 10.8063 3.81451 11.6854 2.93544C12.5645 2.05636 13.7568 1.5625 15 1.5625C16.2432 1.5625 17.4355 2.05636 18.3145 2.93544C19.1936 3.81451 19.6875 5.0068 19.6875 6.25V7.51875C21.2962 7.5675 22.2812 7.74 23.0325 8.36375C24.0737 9.22875 24.3487 10.6912 24.8975 13.6175L25.835 18.6175C26.6062 22.7325 26.9912 24.79 25.8675 26.145C24.7425 27.5 22.6487 27.5 18.4625 27.5H11.5375C7.34998 27.5 5.25748 27.5 4.13248 26.145C3.00748 24.79 3.39498 22.7325 4.16498 18.6175L5.10248 13.6175C5.65248 10.6925 5.92623 9.22875 6.96748 8.36375C7.71873 7.74 8.70373 7.5675 10.3125 7.51875ZM12.1875 6.25C12.1875 5.50408 12.4838 4.78871 13.0112 4.26126C13.5387 3.73382 14.2541 3.4375 15 3.4375C15.7459 3.4375 16.4613 3.73382 16.9887 4.26126C17.5162 4.78871 17.8125 5.50408 17.8125 6.25V7.5H12.1875V6.25ZM19.3362 13.6425C19.4325 13.7194 19.5127 13.8146 19.5721 13.9225C19.6316 14.0305 19.6692 14.1491 19.6828 14.2716C19.6964 14.394 19.6857 14.518 19.6513 14.6363C19.6169 14.7547 19.5596 14.8651 19.4825 14.9613L14.4825 21.2113C14.4 21.3141 14.2968 21.3985 14.1796 21.4588C14.0623 21.5191 13.9337 21.554 13.802 21.5612C13.6704 21.5683 13.5387 21.5477 13.4156 21.5005C13.2924 21.4534 13.1806 21.3808 13.0875 21.2875L10.5875 18.7875C10.4219 18.6098 10.3317 18.3747 10.336 18.1318C10.3403 17.889 10.4387 17.6572 10.6105 17.4855C10.7822 17.3137 11.014 17.2153 11.2568 17.211C11.4997 17.2067 11.7348 17.2969 11.9125 17.4625L13.6725 19.2213L18.0175 13.7887C18.0944 13.6925 18.1896 13.6123 18.2975 13.5529C18.4055 13.4934 18.5241 13.4558 18.6465 13.4422C18.769 13.4286 18.893 13.4393 19.0113 13.4737C19.1297 13.5081 19.2401 13.5654 19.3362 13.6425Z" fill="#0D9755"/>
</svg>