<svg width="6" height="6" viewBox="0 0 6 6" fill="none" xmlns="http://www.w3.org/2000/svg">
<path d="M0.456 2.416C0.544 1.904 0.712 1.52 0.96 1.264C1.216 1 1.544 0.868 1.944 0.868C2.16 0.868 2.352 0.908 2.52 0.988C2.688 1.06 2.88 1.168 3.096 1.312C3.304 1.44 3.464 1.532 3.576 1.588C3.696 1.644 3.824 1.672 3.96 1.672C4.176 1.672 4.352 1.6 4.488 1.456C4.632 1.312 4.72 1.12 4.752 0.88H5.388C5.22 1.912 4.724 2.428 3.9 2.428C3.7 2.428 3.52 2.392 3.36 2.32C3.208 2.248 3.016 2.14 2.784 1.996C2.592 1.868 2.432 1.776 2.304 1.72C2.184 1.656 2.048 1.624 1.896 1.624C1.688 1.624 1.512 1.7 1.368 1.852C1.224 1.996 1.132 2.184 1.092 2.416H0.456ZM0.456 5.416C0.544 4.904 0.712 4.52 0.96 4.264C1.216 4 1.544 3.868 1.944 3.868C2.16 3.868 2.352 3.908 2.52 3.988C2.688 4.06 2.88 4.168 3.096 4.312C3.304 4.44 3.464 4.532 3.576 4.588C3.696 4.644 3.824 4.672 3.96 4.672C4.176 4.672 4.352 4.6 4.488 4.456C4.632 4.312 4.72 4.12 4.752 3.88H5.388C5.22 4.912 4.724 5.428 3.9 5.428C3.7 5.428 3.52 5.392 3.36 5.32C3.208 5.248 3.016 5.14 2.784 4.996C2.592 4.868 2.432 4.776 2.304 4.72C2.184 4.656 2.048 4.624 1.896 4.624C1.688 4.624 1.512 4.7 1.368 4.852C1.224 4.996 1.132 5.184 1.092 5.416H0.456Z" fill="black" fill-opacity="0.4"/>
</svg>
