<svg width="100" height="100" viewBox="0 0 100 100" fill="none" xmlns="http://www.w3.org/2000/svg">
<g clipPath="url(#clip0_4486_32781)">
<path d="M20.832 54.1673C20.832 51.9572 21.71 49.8376 23.2728 48.2748C24.8356 46.712 26.9552 45.834 29.1654 45.834H70.832C73.0422 45.834 75.1618 46.712 76.7246 48.2748C78.2874 49.8376 79.1654 51.9572 79.1654 54.1673V79.1673C79.1654 81.3775 78.2874 83.4971 76.7246 85.0599C75.1618 86.6227 73.0422 87.5007 70.832 87.5007H29.1654C26.9552 87.5007 24.8356 86.6227 23.2728 85.0599C21.71 83.4971 20.832 81.3775 20.832 79.1673V54.1673Z" stroke="black" strokeWidth="3" strokeLinecap="round" strokeLinejoin="round"/>
<path d="M45.832 66.6667C45.832 67.7717 46.271 68.8315 47.0524 69.6129C47.8338 70.3943 48.8936 70.8333 49.9987 70.8333C51.1038 70.8333 52.1636 70.3943 52.945 69.6129C53.7264 68.8315 54.1654 67.7717 54.1654 66.6667C54.1654 65.5616 53.7264 64.5018 52.945 63.7204C52.1636 62.939 51.1038 62.5 49.9987 62.5C48.8936 62.5 47.8338 62.939 47.0524 63.7204C46.271 64.5018 45.832 65.5616 45.832 66.6667Z" stroke="black" strokeWidth="3" strokeLinecap="round" strokeLinejoin="round"/>
<path d="M33.332 45.8333V29.1667C33.332 24.7464 35.088 20.5072 38.2136 17.3816C41.3392 14.2559 45.5784 12.5 49.9987 12.5C54.419 12.5 58.6582 14.2559 61.7838 17.3816C64.9094 20.5072 66.6654 24.7464 66.6654 29.1667V45.8333" stroke="black" strokeWidth="3" strokeLinecap="round" strokeLinejoin="round"/>
</g>
<defs>
<clipPath id="clip0_4486_32781">
<rect width="100" height="100" fill="white"/>
</clipPath>
</defs>
</svg>
