<svg width="116" height="26" viewBox="0 0 116 26" fill="none" xmlns="http://www.w3.org/2000/svg">
<path d="M25.7156 23.2313L22.8759 25.9989L20.2486 23.2313H12.1279C8.25323 23.2313 4.93592 20.8629 3.50284 17.5099C3.18438 16.7648 2.94553 15.9665 2.83938 15.1149C2.7863 14.6891 2.75977 14.2634 2.75977 13.811V7.79688H6.84669V14.1569C6.84669 15.2746 7.21823 16.339 7.82862 17.164C8.49208 18.0688 9.42093 18.734 10.509 19.08C10.9602 19.213 11.4379 19.2929 11.9421 19.2929H16.4271L16.374 19.2396L15.8698 18.734L10.8805 13.5183H16.5332L21.4694 18.734L21.549 18.8139L25.7156 23.2313Z" fill="url(#paint0_linear_1623_15942)"/>
<path d="M25.716 23.2326L22.8764 26.0001L20.2491 23.2326H12.1283C8.2537 23.2326 4.93638 20.8642 3.50331 17.5112C3.18484 16.7661 2.946 15.9678 2.83984 15.1162C3.87484 15.675 5.57331 16.4468 7.82908 17.1653C8.49254 18.07 9.42139 18.7353 10.5095 19.0813C10.9606 19.2143 11.4383 19.2942 11.9425 19.2942H16.4275L16.3745 19.2409L15.8702 18.7353C17.5952 18.8684 19.4529 18.895 21.4433 18.7619L21.5229 18.8418L25.716 23.2326Z" fill="url(#paint1_linear_1623_15942)"/>
<path d="M23.4079 9.68595V17.2435L19.3475 13.1454V9.41984C19.3475 8.88762 19.2679 8.40862 19.1352 7.92962C18.4983 5.74751 16.4814 4.15084 14.0929 4.15084H10.1387V0.0527344H13.7744C19.1087 0.0527344 23.4079 4.36373 23.4079 9.68595Z" fill="url(#paint2_linear_1623_15942)"/>
<path d="M19.1352 7.90374C18.4983 5.72163 16.4814 4.12497 14.0929 4.12497H10.1387V0.452637C12.6333 1.38402 18.3391 3.93869 19.1352 7.90374Z" fill="url(#paint3_linear_1623_15942)"/>
<path d="M3.37039 0H0V3.37961H3.37039V0Z" fill="url(#paint4_linear_1623_15942)"/>
<path d="M3.87479 4.52344H1.48633V6.91843H3.87479V4.52344Z" fill="url(#paint5_linear_1623_15942)"/>
<path d="M9.07694 0.851074H5.17578V4.7629H9.07694V0.851074Z" fill="url(#paint6_linear_1623_15942)"/>
<path d="M40.4975 5.53564C42.7002 5.53564 44.2394 5.88159 45.0886 6.60009C45.9379 7.31859 46.3625 8.75559 46.3625 10.9377C46.3625 12.9867 46.0175 14.4237 45.354 15.2753C44.6905 16.1269 43.3105 16.526 41.1875 16.526H40.0463H33.0932V24.8819L28.6348 20.1717V5.53564H40.4975ZM41.8775 11.0974C41.8775 10.2724 41.6917 9.7402 41.3467 9.47409C41.0017 9.20797 40.3913 9.10153 39.5155 9.10153H33.1198V12.9867H39.5686C40.4179 12.9867 41.0017 12.8537 41.3467 12.6142C41.7182 12.3747 41.8775 11.8691 41.8775 11.0974Z" fill="url(#paint7_linear_1623_15942)"/>
<path d="M62.1252 5.53564C63.8767 5.53564 65.124 5.88159 65.8936 6.54687C66.6367 7.23875 67.0082 8.43625 67.0082 10.166C67.0082 10.8313 66.9817 11.3901 66.9021 11.8691C66.8225 12.3481 66.6898 12.7472 66.4509 13.0932C66.2386 13.4391 65.9732 13.7052 65.6813 13.8649C65.3894 14.0246 64.779 14.2641 63.8502 14.5834C64.8586 14.7165 65.6282 14.9826 66.1059 15.3551C66.5836 15.7543 66.8225 16.4196 66.8225 17.3776V20.1984H62.3109V18.788C62.3109 18.0695 62.2578 17.5106 62.1252 17.0849C61.9925 16.6591 61.4086 16.4462 60.3736 16.4462H52.9428V20.1984H48.4844V5.56226H62.1252V5.53564ZM60.2675 12.8803C61.2759 12.8803 61.9129 12.7472 62.1517 12.5077C62.3905 12.2682 62.5232 11.7094 62.5232 10.8313C62.5232 10.3523 62.4702 9.9797 62.3905 9.76681C62.2844 9.52731 62.0986 9.36764 61.8067 9.28781C61.5148 9.20797 61.2494 9.15475 61.0636 9.12814C60.8778 9.10153 60.639 9.10153 60.3736 9.10153H60.0286H52.9694V12.8803H59.6836H60.2675Z" fill="url(#paint8_linear_1623_15942)"/>
<path d="M69.1855 20.1717V5.53564H73.644V20.1717H69.1855Z" fill="url(#paint9_linear_1623_15942)"/>
<path d="M89.4344 20.1717L80.6501 9.18136V20.1717H76.457V5.53564H83.5428L92.3536 16.526V5.53564H96.5467V20.1717H89.4344Z" fill="url(#paint10_linear_1623_15942)"/>
<path d="M105.038 20.1717V9.20798H98.5098V5.53564H115.999V9.20798H109.497V20.1984H105.038V20.1717Z" fill="url(#paint11_linear_1623_15942)"/>
<defs>
<linearGradient id="paint0_linear_1623_15942" x1="2.75977" y1="16.8979" x2="26.2996" y2="17.0915" gradientUnits="userSpaceOnUse">
<stop stopColor="#C83B62"/>
<stop offset="1" stopColor="#7F35CD"/>
</linearGradient>
<linearGradient id="paint1_linear_1623_15942" x1="2.83984" y1="20.5582" x2="26.2952" y2="20.8797" gradientUnits="userSpaceOnUse">
<stop stopColor="#C83B62"/>
<stop offset="1" stopColor="#7F35CD"/>
</linearGradient>
<linearGradient id="paint2_linear_1623_15942" x1="10.1387" y1="8.64811" x2="23.7461" y2="8.71661" gradientUnits="userSpaceOnUse">
<stop stopColor="#C83B62"/>
<stop offset="1" stopColor="#7F35CD"/>
</linearGradient>
<linearGradient id="paint3_linear_1623_15942" x1="10.1387" y1="4.17819" x2="19.3642" y2="4.25083" gradientUnits="userSpaceOnUse">
<stop stopColor="#C83B62"/>
<stop offset="1" stopColor="#7F35CD"/>
</linearGradient>
<linearGradient id="paint4_linear_1623_15942" x1="2.62856e-08" y1="1.6898" x2="3.45623" y2="1.71228" gradientUnits="userSpaceOnUse">
<stop stopColor="#C83B62"/>
<stop offset="1" stopColor="#7F35CD"/>
</linearGradient>
<linearGradient id="paint5_linear_1623_15942" x1="1.48633" y1="5.72094" x2="3.93562" y2="5.73686" gradientUnits="userSpaceOnUse">
<stop stopColor="#C83B62"/>
<stop offset="1" stopColor="#7F35CD"/>
</linearGradient>
<linearGradient id="paint6_linear_1623_15942" x1="5.17578" y1="2.80699" x2="9.1763" y2="2.833" gradientUnits="userSpaceOnUse">
<stop stopColor="#C83B62"/>
<stop offset="1" stopColor="#7F35CD"/>
</linearGradient>
<linearGradient id="paint7_linear_1623_15942" x1="28.6348" y1="15.2088" x2="46.8141" y2="15.3174" gradientUnits="userSpaceOnUse">
<stop stopColor="#C83B62"/>
<stop offset="1" stopColor="#7F35CD"/>
</linearGradient>
<linearGradient id="paint8_linear_1623_15942" x1="48.4844" y1="12.867" x2="67.4795" y2="13.0235" gradientUnits="userSpaceOnUse">
<stop stopColor="#C83B62"/>
<stop offset="1" stopColor="#7F35CD"/>
</linearGradient>
<linearGradient id="paint9_linear_1623_15942" x1="69.1855" y1="12.8537" x2="73.7577" y2="12.8628" gradientUnits="userSpaceOnUse">
<stop stopColor="#C83B62"/>
<stop offset="1" stopColor="#7F35CD"/>
</linearGradient>
<linearGradient id="paint10_linear_1623_15942" x1="76.457" y1="12.8537" x2="97.0575" y2="13.0381" gradientUnits="userSpaceOnUse">
<stop stopColor="#C83B62"/>
<stop offset="1" stopColor="#7F35CD"/>
</linearGradient>
<linearGradient id="paint11_linear_1623_15942" x1="98.5098" y1="12.867" x2="116.444" y2="13.0065" gradientUnits="userSpaceOnUse">
<stop stopColor="#C83B62"/>
<stop offset="1" stopColor="#7F35CD"/>
</linearGradient>
</defs>
</svg>
