<svg xmlns="http://www.w3.org/2000/svg" width="30" height="30" viewBox="0 0 30 30"  fill="none"> 
  <g clipPath="url(#clip0_1181_1368)">
    <path fill-rule="evenodd" clip-rule="evenodd" d="M9.9277 9.75022C9.13034 10.5362 8.52087 11.4921 8.14485 12.5467C7.76882 13.6012 7.63595 14.7271 7.75616 15.8402C7.76412 15.9156 7.75714 15.9918 7.73565 16.0645C7.71415 16.1372 7.67854 16.2049 7.63086 16.2639C7.58318 16.3228 7.52436 16.3718 7.45776 16.408C7.39116 16.4442 7.31808 16.4669 7.2427 16.4748C7.16732 16.4828 7.0911 16.4758 7.01841 16.4543C6.94572 16.4328 6.87798 16.3972 6.81905 16.3495C6.76012 16.3019 6.71116 16.243 6.67496 16.1764C6.63876 16.1098 6.61604 16.0368 6.60808 15.9614C6.4696 14.6756 6.62338 13.3752 7.05794 12.1573C7.4925 10.9393 8.19662 9.83522 9.1177 8.92753C12.5065 5.58483 17.9735 5.63907 21.3277 9.0406C24.6819 12.441 24.66 17.9079 21.27 21.2506C19.7009 22.8008 17.5943 23.6861 15.3889 23.7221C14.555 23.737 13.7234 23.6317 12.9196 23.4095C12.7721 23.3687 12.6468 23.2711 12.5713 23.138C12.4958 23.005 12.4762 22.8473 12.5169 22.6998C12.5576 22.5523 12.6553 22.427 12.7883 22.3515C12.9214 22.276 13.079 22.2564 13.2265 22.2971C13.9237 22.4899 14.6449 22.5813 15.3681 22.5683C17.2776 22.5378 19.1017 21.7715 20.46 20.4291C23.3919 17.5375 23.4162 12.8021 20.5062 9.8506C17.5962 6.89907 12.8596 6.85868 9.9277 9.75022Z" fill="#1AD5CA"/>
    <path fill-rule="evenodd" clip-rule="evenodd" d="M7.60844 16.5727C7.55799 16.6292 7.49689 16.6753 7.42865 16.7082C7.3604 16.7411 7.28634 16.7602 7.2107 16.7645C7.13505 16.7688 7.0593 16.7581 6.98778 16.7332C6.91625 16.7082 6.85035 16.6693 6.79383 16.6189L4.80921 14.8535C4.74821 14.8045 4.6978 14.7436 4.66105 14.6746C4.6243 14.6055 4.60198 14.5297 4.59546 14.4517C4.58893 14.3738 4.59833 14.2953 4.62307 14.2211C4.64782 14.1469 4.68741 14.0784 4.73943 14.02C4.79144 13.9616 4.8548 13.9143 4.92564 13.8811C4.99649 13.848 5.07335 13.8295 5.15154 13.827C5.22973 13.8244 5.30763 13.8378 5.38049 13.8663C5.45335 13.8948 5.51965 13.9378 5.57537 13.9927L7.55998 15.7581C7.61667 15.8084 7.66289 15.8694 7.696 15.9375C7.72911 16.0057 7.74847 16.0797 7.75297 16.1554C7.75747 16.231 7.74703 16.3068 7.72223 16.3784C7.69743 16.45 7.65876 16.516 7.60844 16.5727Z" fill="#1AD5CA"/>
    <path fill-rule="evenodd" clip-rule="evenodd" d="M6.71536 16.5004C6.76082 16.561 6.81777 16.612 6.88296 16.6506C6.94815 16.6892 7.02031 16.7146 7.09531 16.7253C7.17031 16.7361 7.24669 16.7319 7.32008 16.7131C7.39347 16.6943 7.46244 16.6612 7.52305 16.6158L9.83075 14.885C9.89136 14.8395 9.94242 14.7826 9.98102 14.7174C10.0196 14.6522 10.045 14.58 10.0557 14.505C10.0664 14.43 10.0623 14.3537 10.0435 14.2803C10.0247 14.2069 9.99159 14.1379 9.94613 14.0773C9.90067 14.0167 9.84372 13.9656 9.77853 13.927C9.71334 13.8884 9.64118 13.863 9.56618 13.8523C9.49118 13.8416 9.4148 13.8458 9.34141 13.8646C9.26802 13.8834 9.19905 13.9165 9.13844 13.9619L6.83075 15.6927C6.70834 15.7845 6.62742 15.9212 6.60578 16.0726C6.58414 16.2241 6.62356 16.378 6.71536 16.5004ZM15 10.9619C15.153 10.9619 15.2997 11.0227 15.4079 11.1309C15.5161 11.2391 15.5769 11.3858 15.5769 11.5388V15.5773C15.5769 15.7303 15.5161 15.8771 15.4079 15.9852C15.2997 16.0934 15.153 16.1542 15 16.1542C14.847 16.1542 14.7002 16.0934 14.592 15.9852C14.4838 15.8771 14.4231 15.7303 14.4231 15.5773V11.5388C14.4231 11.3858 14.4838 11.2391 14.592 11.1309C14.7002 11.0227 14.847 10.9619 15 10.9619Z" fill="#1AD5CA"/>
    <path fill-rule="evenodd" clip-rule="evenodd" d="M19.0384 15.5769C19.0384 15.7299 18.9776 15.8767 18.8694 15.9849C18.7612 16.0931 18.6145 16.1538 18.4615 16.1538H15C14.8469 16.1538 14.7002 16.0931 14.592 15.9849C14.4838 15.8767 14.423 15.7299 14.423 15.5769C14.423 15.4239 14.4838 15.2772 14.592 15.169C14.7002 15.0608 14.8469 15 15 15H18.4615C18.6145 15 18.7612 15.0608 18.8694 15.169C18.9776 15.2772 19.0384 15.4239 19.0384 15.5769Z" fill="#1AD5CA"/>
    <path fill-rule="evenodd" clip-rule="evenodd" d="M15 28.2695C22.3281 28.2695 28.2692 22.3283 28.2692 15.0002C28.2692 7.67215 22.3281 1.73099 15 1.73099C7.6719 1.73099 1.73075 7.67215 1.73075 15.0002C1.73075 22.3283 7.6719 28.2695 15 28.2695ZM15 29.4233C22.9661 29.4233 29.4231 22.9664 29.4231 15.0002C29.4231 7.03407 22.9661 0.577148 15 0.577148C7.03383 0.577148 0.576904 7.03407 0.576904 15.0002C0.576904 22.9664 7.03383 29.4233 15 29.4233Z" fill="#1AD5CA"/>
  </g>
  <defs>
    <clipPath id="clip0_1181_1368">
      <rect width="30" height="30" fill="white"/>
    </clipPath>
  </defs>
</svg>