<svg xmlns="http://www.w3.org/2000/svg" width="30" height="30" viewBox="0 0 30 30" fill="none">
  <path d="M24.5266 19.7281C23.7935 19.7281 23.0971 20.0152 22.5718 20.5345C22.0464 21.0598 21.7532 21.744 21.7532 22.477C21.7532 23.2101 22.0403 23.8943 22.5718 24.4196C23.1032 24.9389 23.7935 25.226 24.5266 25.226C26.0293 25.226 27.2511 23.992 27.2511 22.477C27.2511 20.9621 26.0293 19.7281 24.5266 19.7281ZM24.5266 24.0042C23.6836 24.0042 22.975 23.3078 22.975 22.477C22.975 21.6462 23.6836 20.9499 24.5266 20.9499C25.3574 20.9499 26.0293 21.634 26.0293 22.477C26.0293 23.32 25.3574 24.0042 24.5266 24.0042ZM25.2352 10.5711C25.1252 10.4673 24.9786 10.4123 24.8259 10.4123H21.6921C21.3561 10.4123 21.0812 10.6872 21.0812 11.0232V16.0323C21.0812 16.3683 21.3561 16.6432 21.6921 16.6432H26.6646C27.0006 16.6432 27.2755 16.3683 27.2755 16.0323V12.6786C27.2755 12.5076 27.2022 12.3426 27.0739 12.2266L25.2352 10.5711ZM26.0538 15.4214H22.303V11.6279H24.5877L26.0538 12.9474V15.4214ZM9.60904 19.7281C8.87599 19.7281 8.1796 20.0152 7.65425 20.5345C7.12889 21.0598 6.83568 21.744 6.83568 22.477C6.83568 23.2101 7.12279 23.8943 7.65425 24.4196C8.18571 24.9389 8.87599 25.226 9.60904 25.226C11.1118 25.226 12.3335 23.992 12.3335 22.477C12.3335 20.9621 11.1118 19.7281 9.60904 19.7281ZM9.60904 24.0042C8.76604 24.0042 8.05742 23.3078 8.05742 22.477C8.05742 21.6462 8.76604 20.9499 9.60904 20.9499C10.4398 20.9499 11.1118 21.634 11.1118 22.477C11.1118 23.32 10.4398 24.0042 9.60904 24.0042ZM5.53451 20.4795H4.30666V18.8546C4.30666 18.5186 4.03177 18.2437 3.69579 18.2437C3.3598 18.2437 3.08491 18.5186 3.08491 18.8546V21.0904C3.08491 21.4263 3.3598 21.7012 3.69579 21.7012H5.53451C5.87049 21.7012 6.14539 21.4263 6.14539 21.0904C6.14539 20.7544 5.87049 20.4795 5.53451 20.4795ZM8.63164 17.1502C8.63164 16.8142 8.35675 16.5393 8.02077 16.5393H0.610874C0.274893 16.5393 0 16.8142 0 17.1502C0 17.4862 0.274893 17.7611 0.610874 17.7611H8.02077C8.35675 17.7611 8.63164 17.4923 8.63164 17.1502ZM1.85095 14.945L9.26084 14.9877C9.59682 14.9877 9.87172 14.7189 9.87782 14.383C9.88393 14.0409 9.60904 13.766 9.27306 13.766L1.86316 13.7232C1.85706 13.7232 1.85706 13.7232 1.85706 13.7232C1.52108 13.7232 1.24618 13.992 1.24618 14.328C1.24007 14.6701 1.51497 14.945 1.85095 14.945ZM3.09713 12.1716H10.507C10.843 12.1716 11.1179 11.8967 11.1179 11.5607C11.1179 11.2247 10.843 10.9499 10.507 10.9499H3.09713C2.76115 10.9499 2.48626 11.2247 2.48626 11.5607C2.48626 11.8967 2.76115 12.1716 3.09713 12.1716ZM29.774 11.3469L25.4001 7.72444C25.2902 7.63281 25.1558 7.58394 25.0092 7.58394H19.8656V5.3848C19.8656 5.04882 19.5907 4.77393 19.2547 4.77393H3.69579C3.3598 4.77393 3.08491 5.04882 3.08491 5.3848V9.85639C3.08491 10.1924 3.3598 10.4673 3.69579 10.4673C4.03177 10.4673 4.30666 10.1924 4.30666 9.85639V5.99567H18.65V20.4795H13.6408C13.3048 20.4795 13.0299 20.7544 13.0299 21.0904C13.0299 21.4263 13.3048 21.7012 13.6408 21.7012H21.0996C21.4356 21.7012 21.7104 21.4263 21.7104 21.0904C21.7104 20.7544 21.4356 20.4795 21.0996 20.4795H19.8717V8.80569H24.7954L28.7783 12.1044L28.7355 20.4673H28.1002C27.7642 20.4673 27.4893 20.7422 27.4893 21.0781C27.4893 21.4141 27.7642 21.689 28.1002 21.689H29.3403C29.6762 21.689 29.9511 21.4202 29.9511 21.0842L30 11.8234C29.9939 11.6401 29.9145 11.463 29.774 11.3469Z" fill="url(#paint0_linear_3603_13912)"/>
  <defs>
    <linearGradient id="paint0_linear_3603_13912" x1="2.3397e-07" y1="14.9999" x2="30.7626" y2="15.2942" gradientUnits="userSpaceOnUse">
      <stop stopColor="#C83B62"/>
      <stop offset="1" stopColor="#7F35CD"/>
    </linearGradient>
  </defs>
</svg>