<svg xmlns="http://www.w3.org/2000/svg" width="16" height="16" viewBox="0 0 16 16" fill="none">
  <path d="M6.83301 6.6865C6.83301 7.0465 6.93301 7.09984 7.15967 7.17984L7.49967 7.29984V6.1665H7.29967C7.04634 6.1665 6.83301 6.39984 6.83301 6.6865ZM8.49967 9.83317H8.69967C8.95967 9.83317 9.16634 9.59984 9.16634 9.31317C9.16634 8.95317 9.06634 8.89984 8.83967 8.81984L8.49967 8.69984V9.83317Z" fill="#83AD7D"/>
  <path d="M13.053 3.6535L11.6863 5.02016C11.5863 5.12016 11.4597 5.16683 11.333 5.16683C11.2063 5.16683 11.0797 5.12016 10.9797 5.02016C10.8867 4.92607 10.8345 4.79912 10.8345 4.66683C10.8345 4.53454 10.8867 4.40759 10.9797 4.3135L12.3463 2.94683C11.173 1.94683 9.65967 1.3335 7.99967 1.3335C4.31967 1.3335 1.33301 4.32016 1.33301 8.00016C1.33301 11.6802 4.31967 14.6668 7.99967 14.6668C11.6797 14.6668 14.6663 11.6802 14.6663 8.00016C14.6663 6.34016 14.053 4.82683 13.053 3.6535ZM9.16634 7.88016C9.59301 8.0335 10.1663 8.34016 10.1663 9.32016C10.1663 10.1535 9.50634 10.8402 8.69967 10.8402H8.49967V11.0068C8.49967 11.2802 8.27301 11.5068 7.99967 11.5068C7.72634 11.5068 7.49967 11.2802 7.49967 11.0068V10.8402H7.44634C6.55967 10.8402 5.83301 10.0935 5.83301 9.1735C5.83301 8.8935 6.05967 8.66683 6.33301 8.66683C6.60634 8.66683 6.83301 8.8935 6.83301 9.16683C6.83301 9.5335 7.10634 9.8335 7.44634 9.8335H7.49967V8.3535L6.83301 8.12016C6.40634 7.96683 5.83301 7.66016 5.83301 6.68016C5.83301 5.84683 6.49301 5.16016 7.29967 5.16016H7.49967V5.00016C7.49967 4.72683 7.72634 4.50016 7.99967 4.50016C8.27301 4.50016 8.49967 4.72683 8.49967 5.00016V5.16683H8.55301C9.43967 5.16683 10.1663 5.9135 10.1663 6.8335C10.1663 7.10683 9.93967 7.3335 9.66634 7.3335C9.39301 7.3335 9.16634 7.10683 9.16634 6.8335C9.16634 6.46683 8.89301 6.16683 8.55301 6.16683H8.49967V7.64683L9.16634 7.88016ZM15.1263 1.14016C15.0736 1.01739 14.9758 0.919548 14.853 0.866829C14.793 0.84553 14.73 0.834268 14.6663 0.833496H11.9997C11.7263 0.833496 11.4997 1.06016 11.4997 1.3335C11.4997 1.60683 11.7263 1.8335 11.9997 1.8335H13.4597L12.3463 2.94683C12.5997 3.16683 12.833 3.40016 13.053 3.6535L14.1663 2.54016V4.00016C14.1663 4.2735 14.393 4.50016 14.6663 4.50016C14.9397 4.50016 15.1663 4.2735 15.1663 4.00016V1.3335C15.1663 1.26683 15.153 1.20683 15.1263 1.14016Z" fill="#83AD7D"/>
</svg>