<svg width="30" height="30" viewBox="0 0 30 30" fill="none" xmlns="http://www.w3.org/2000/svg">
<g clipPath="url(#clip0_3393_18248)">
<path d="M0 15C0 6.71573 6.71573 0 15 0C23.2843 0 30 6.71573 30 15C30 23.2843 23.2843 30 15 30C6.71573 30 0 23.2843 0 15Z" fill="white"/>
<path d="M15.014 2.51367C15.9862 2.51373 16.9252 2.86789 17.6552 3.50992L17.8477 3.69117L18.7202 4.56367C18.9597 4.80156 19.2724 4.95174 19.6077 4.98992L19.7765 4.99992H21.0265C22.048 4.99986 23.0309 5.39063 23.7735 6.0921C24.5161 6.79356 24.9621 7.75255 25.0202 8.77242L25.0265 8.99992V10.2499C25.0265 10.5874 25.1415 10.9162 25.349 11.1787L25.4615 11.3037L26.3327 12.1762C27.0549 12.8942 27.476 13.8607 27.5101 14.8785C27.5443 15.8963 27.1889 16.8888 26.5165 17.6537L26.3352 17.8462L25.4627 18.7187C25.2249 18.9581 25.0747 19.2708 25.0365 19.6062L25.0265 19.7749V21.0249C25.0266 22.0464 24.6358 23.0293 23.9343 23.7719C23.2329 24.5145 22.2739 24.9606 21.254 25.0187L21.0265 25.0249H19.7765C19.4395 25.025 19.1123 25.1386 18.8477 25.3474L18.7227 25.4599L17.8502 26.3312C17.1322 27.0533 16.1657 27.4744 15.1479 27.5085C14.1301 27.5427 13.1376 27.1873 12.3727 26.5149L12.1802 26.3337L11.3077 25.4612C11.0683 25.2233 10.7556 25.0731 10.4202 25.0349L10.2515 25.0249H9.00149C7.97997 25.025 6.99713 24.6342 6.25453 23.9327C5.51193 23.2313 5.06584 22.2723 5.00774 21.2524L5.00149 21.0249V19.7749C5.00138 19.4379 4.88778 19.1107 4.67899 18.8462L4.56649 18.7212L3.69524 17.8487C2.97309 17.1306 2.55202 16.1641 2.51788 15.1463C2.48373 14.1285 2.83909 13.136 3.51149 12.3712L3.69274 12.1787L4.56524 11.3062C4.80313 11.0667 4.95331 10.754 4.99149 10.4187L5.00149 10.2499V8.99992L5.00774 8.77242C5.06356 7.79173 5.47827 6.86586 6.17285 6.17128C6.86743 5.4767 7.7933 5.06199 8.77399 5.00617L9.00149 4.99992H10.2515C10.5885 4.99981 10.9157 4.88621 11.1802 4.67742L11.3052 4.56492L12.1777 3.69367C12.5494 3.31978 12.9913 3.02305 13.4781 2.82055C13.9648 2.61804 14.4868 2.51375 15.014 2.51367ZM19.6352 11.6162C19.4008 11.3818 19.083 11.2502 18.7515 11.2502C18.42 11.2502 18.1022 11.3818 17.8677 11.6162L13.7515 15.7312L12.1352 14.1162L12.0177 14.0124C11.7665 13.8182 11.4507 13.7268 11.1346 13.7569C10.8184 13.787 10.5256 13.9364 10.3156 14.1746C10.1055 14.4128 9.99401 14.722 10.0037 15.0394C10.0134 15.3569 10.1436 15.6587 10.3677 15.8837L12.8677 18.3837L12.9852 18.4874C13.2257 18.674 13.5261 18.7664 13.8298 18.7473C14.1336 18.7282 14.42 18.5989 14.6352 18.3837L19.6352 13.3837L19.739 13.2662C19.9256 13.0257 20.018 12.7254 19.9989 12.4216C19.9798 12.1178 19.8505 11.8314 19.6352 11.6162Z" fill="#00AD1C"/>
</g>
<defs>
<clipPath id="clip0_3393_18248">
<rect width="30" height="30" fill="white"/>
</clipPath>
</defs>
</svg>
